<svg width="90" height="90" viewBox="0 0 90 90" fill="none" xmlns="http://www.w3.org/2000/svg">
<path d="M67.5824 83.8477H48.6914V82.793C48.6914 82.0647 48.1011 81.4746 47.373 81.4746H42.627C41.8989 81.4746 41.3086 82.0647 41.3086 82.793V83.8477H9.66797V81.6504C9.66797 80.9221 9.07769 80.332 8.34961 80.332H6.15234V48.6914H7.20703C7.93512 48.6914 8.52539 48.1013 8.52539 47.373V42.627C8.52539 41.8987 7.93512 41.3086 7.20703 41.3086H6.15234V9.66797H8.34961C9.07769 9.66797 9.66797 9.07787 9.66797 8.34961V6.15234H16.9687C17.6968 6.15234 18.2871 5.56225 18.2871 4.83398C18.2871 4.10572 17.6968 3.51562 16.9687 3.51562H9.66797V1.31836C9.66797 0.590098 9.07769 0 8.34961 0H1.31836C0.590273 0 0 0.590098 0 1.31836V8.34961C0 9.07787 0.590273 9.66797 1.31836 9.66797H3.51562V41.3086H2.46094C1.73285 41.3086 1.14258 41.8987 1.14258 42.627V47.373C1.14258 48.1013 1.73285 48.6914 2.46094 48.6914H3.51562V80.332H1.31836C0.590273 80.332 0 80.9221 0 81.6504V88.6816C0 89.4099 0.590273 90 1.31836 90H8.34961C9.07769 90 9.66797 89.4099 9.66797 88.6816V86.4844H41.3086V87.5391C41.3086 88.2673 41.8989 88.8574 42.627 88.8574H47.373C48.1011 88.8574 48.6914 88.2673 48.6914 87.5391V86.4844H67.5824C68.3105 86.4844 68.9008 85.8943 68.9008 85.166C68.9008 84.4378 68.3105 83.8477 67.5824 83.8477ZM2.63672 2.63672H7.03125V7.03125H2.63672V2.63672ZM3.7793 43.9453H5.88867V46.0547H3.7793V43.9453ZM7.03125 87.3633H2.63672V82.9688H7.03125V87.3633ZM46.0547 86.2207H43.9453V84.1113H46.0547V86.2207Z" fill="url(#paint0_linear_43_183)"/>
<path d="M67.5824 83.8477H48.6914V82.793C48.6914 82.0647 48.1011 81.4746 47.373 81.4746H42.627C41.8989 81.4746 41.3086 82.0647 41.3086 82.793V83.8477H9.66797V81.6504C9.66797 80.9221 9.07769 80.332 8.34961 80.332H6.15234V48.6914H7.20703C7.93512 48.6914 8.52539 48.1013 8.52539 47.373V42.627C8.52539 41.8987 7.93512 41.3086 7.20703 41.3086H6.15234V9.66797H8.34961C9.07769 9.66797 9.66797 9.07787 9.66797 8.34961V6.15234H16.9687C17.6968 6.15234 18.2871 5.56225 18.2871 4.83398C18.2871 4.10572 17.6968 3.51562 16.9687 3.51562H9.66797V1.31836C9.66797 0.590098 9.07769 0 8.34961 0H1.31836C0.590273 0 0 0.590098 0 1.31836V8.34961C0 9.07787 0.590273 9.66797 1.31836 9.66797H3.51562V41.3086H2.46094C1.73285 41.3086 1.14258 41.8987 1.14258 42.627V47.373C1.14258 48.1013 1.73285 48.6914 2.46094 48.6914H3.51562V80.332H1.31836C0.590273 80.332 0 80.9221 0 81.6504V88.6816C0 89.4099 0.590273 90 1.31836 90H8.34961C9.07769 90 9.66797 89.4099 9.66797 88.6816V86.4844H41.3086V87.5391C41.3086 88.2673 41.8989 88.8574 42.627 88.8574H47.373C48.1011 88.8574 48.6914 88.2673 48.6914 87.5391V86.4844H67.5824C68.3105 86.4844 68.9008 85.8943 68.9008 85.166C68.9008 84.4378 68.3105 83.8477 67.5824 83.8477ZM2.63672 2.63672H7.03125V7.03125H2.63672V2.63672ZM3.7793 43.9453H5.88867V46.0547H3.7793V43.9453ZM7.03125 87.3633H2.63672V82.9688H7.03125V87.3633ZM46.0547 86.2207H43.9453V84.1113H46.0547V86.2207Z" fill="#98B7C6"/>
<path d="M88.6816 9.66797C89.4097 9.66797 90 9.07787 90 8.34961V1.31836C90 0.590098 89.4097 0 88.6816 0H81.6503C80.9223 0 80.332 0.590098 80.332 1.31836V3.51562H48.6914V2.46094C48.6914 1.73268 48.1011 1.14258 47.373 1.14258H42.6269C41.8988 1.14258 41.3085 1.73268 41.3085 2.46094V3.51562H23.3075C22.5794 3.51562 21.9891 4.10572 21.9891 4.83398C21.9891 5.56225 22.5794 6.15234 23.3075 6.15234H41.3085V7.20703C41.3085 7.93529 41.8988 8.52539 42.6269 8.52539H47.373C48.1011 8.52539 48.6914 7.93529 48.6914 7.20703V6.15234H80.332V8.34961C80.332 9.07787 80.9223 9.66797 81.6503 9.66797H83.8476V41.3086H82.7929C82.0648 41.3086 81.4746 41.8987 81.4746 42.627V47.373C81.4746 48.1013 82.0648 48.6914 82.7929 48.6914H83.8476V80.332H81.6503C80.9223 80.332 80.332 80.9221 80.332 81.6504V83.8477H73.7448C73.0167 83.8477 72.4264 84.4378 72.4264 85.166C72.4264 85.8943 73.0167 86.4844 73.7448 86.4844H80.332V88.6816C80.332 89.4099 80.9223 90 81.6503 90H88.6816C89.4097 90 90 89.4099 90 88.6816V81.6504C90 80.9221 89.4097 80.332 88.6816 80.332H86.4843V48.6914H87.539C88.2671 48.6914 88.8574 48.1013 88.8574 47.373V42.627C88.8574 41.8987 88.2671 41.3086 87.539 41.3086H86.4843V9.66797H88.6816ZM46.0546 5.88867H43.9453V3.7793H46.0546V5.88867ZM87.3632 87.3633H82.9687V82.9688H87.3632V87.3633ZM86.2207 46.0547H84.1113V43.9453H86.2207V46.0547ZM82.9687 2.63672H87.3632V7.03125H82.9687V2.63672Z" fill="url(#paint1_linear_43_183)"/>
<path d="M88.6816 9.66797C89.4097 9.66797 90 9.07787 90 8.34961V1.31836C90 0.590098 89.4097 0 88.6816 0H81.6503C80.9223 0 80.332 0.590098 80.332 1.31836V3.51562H48.6914V2.46094C48.6914 1.73268 48.1011 1.14258 47.373 1.14258H42.6269C41.8988 1.14258 41.3085 1.73268 41.3085 2.46094V3.51562H23.3075C22.5794 3.51562 21.9891 4.10572 21.9891 4.83398C21.9891 5.56225 22.5794 6.15234 23.3075 6.15234H41.3085V7.20703C41.3085 7.93529 41.8988 8.52539 42.6269 8.52539H47.373C48.1011 8.52539 48.6914 7.93529 48.6914 7.20703V6.15234H80.332V8.34961C80.332 9.07787 80.9223 9.66797 81.6503 9.66797H83.8476V41.3086H82.7929C82.0648 41.3086 81.4746 41.8987 81.4746 42.627V47.373C81.4746 48.1013 82.0648 48.6914 82.7929 48.6914H83.8476V80.332H81.6503C80.9223 80.332 80.332 80.9221 80.332 81.6504V83.8477H73.7448C73.0167 83.8477 72.4264 84.4378 72.4264 85.166C72.4264 85.8943 73.0167 86.4844 73.7448 86.4844H80.332V88.6816C80.332 89.4099 80.9223 90 81.6503 90H88.6816C89.4097 90 90 89.4099 90 88.6816V81.6504C90 80.9221 89.4097 80.332 88.6816 80.332H86.4843V48.6914H87.539C88.2671 48.6914 88.8574 48.1013 88.8574 47.373V42.627C88.8574 41.8987 88.2671 41.3086 87.539 41.3086H86.4843V9.66797H88.6816ZM46.0546 5.88867H43.9453V3.7793H46.0546V5.88867ZM87.3632 87.3633H82.9687V82.9688H87.3632V87.3633ZM86.2207 46.0547H84.1113V43.9453H86.2207V46.0547ZM82.9687 2.63672H87.3632V7.03125H82.9687V2.63672Z" fill="#98B7C6"/>
<path d="M13.9372 74.9173C14.3453 75.493 15.01 75.8368 15.7154 75.8368H30.8073C32.249 75.8368 33.5566 74.9284 34.0615 73.5749L37.899 63.2489H52.1278L55.9234 73.5627C56.4214 74.9229 57.7311 75.837 59.182 75.837H74.2846C74.9906 75.837 75.6554 75.4935 76.0632 74.918C76.471 74.3427 76.5751 73.6016 76.3413 72.9361L56.5381 16.482C56.0493 15.0947 54.7332 14.1629 53.2633 14.1629C49.13 14.1629 40.815 14.1629 36.7367 14.1629C35.2666 14.1629 33.9506 15.0951 33.4614 16.4839L13.6589 72.9357C13.4253 73.601 13.5294 74.342 13.9372 74.9173ZM35.9487 17.3583C36.0665 17.0241 36.383 16.7994 36.7365 16.7994H44.71C44.9884 16.8116 45.2468 16.9211 45.4973 17.3565L50.4661 31.521C50.7071 32.2079 51.4594 32.5697 52.1466 32.3287C52.8337 32.0877 53.1953 31.3353 52.9543 30.6482L48.0962 16.7994H53.2631C53.6166 16.7994 53.9332 17.0239 54.0505 17.3565L73.6393 73.2001H67.8604C67.8414 73.1113 54.9984 36.476 54.9984 36.476C54.7574 35.7889 54.0048 35.427 53.318 35.6683C52.6308 35.9093 52.2693 36.6617 52.5103 37.3488L65.0862 73.2001H59.1817C58.8328 73.2001 58.5181 72.9814 58.3982 72.6541L54.2842 61.4753C54.0935 60.9568 53.5994 60.6122 53.0469 60.6122H28.4295C27.8786 60.6122 27.3857 60.9548 27.1937 61.4714L26.1146 64.3753C25.8609 65.0579 26.2086 65.8166 26.891 66.0704C27.5734 66.3242 28.3324 65.9764 28.5861 65.2938L29.346 63.2491H35.0861L31.5905 72.6552C31.4689 72.9812 31.1541 73.2004 30.8073 73.2004H25.6477L26.4292 71.0976C26.6829 70.4152 26.3352 69.6563 25.6528 69.4025C24.9706 69.1489 24.2114 69.4966 23.9578 70.1791L23.0372 72.6559C22.9802 72.8092 22.8807 72.941 22.7507 73.0368C22.6048 73.1437 22.433 73.2004 22.2543 73.2004H16.3603L35.9487 17.3583Z" fill="url(#paint2_linear_43_183)"/>
<path d="M13.9372 74.9173C14.3453 75.493 15.01 75.8368 15.7154 75.8368H30.8073C32.249 75.8368 33.5566 74.9284 34.0615 73.5749L37.899 63.2489H52.1278L55.9234 73.5627C56.4214 74.9229 57.7311 75.837 59.182 75.837H74.2846C74.9906 75.837 75.6554 75.4935 76.0632 74.918C76.471 74.3427 76.5751 73.6016 76.3413 72.9361L56.5381 16.482C56.0493 15.0947 54.7332 14.1629 53.2633 14.1629C49.13 14.1629 40.815 14.1629 36.7367 14.1629C35.2666 14.1629 33.9506 15.0951 33.4614 16.4839L13.6589 72.9357C13.4253 73.601 13.5294 74.342 13.9372 74.9173ZM35.9487 17.3583C36.0665 17.0241 36.383 16.7994 36.7365 16.7994H44.71C44.9884 16.8116 45.2468 16.9211 45.4973 17.3565L50.4661 31.521C50.7071 32.2079 51.4594 32.5697 52.1466 32.3287C52.8337 32.0877 53.1953 31.3353 52.9543 30.6482L48.0962 16.7994H53.2631C53.6166 16.7994 53.9332 17.0239 54.0505 17.3565L73.6393 73.2001H67.8604C67.8414 73.1113 54.9984 36.476 54.9984 36.476C54.7574 35.7889 54.0048 35.427 53.318 35.6683C52.6308 35.9093 52.2693 36.6617 52.5103 37.3488L65.0862 73.2001H59.1817C58.8328 73.2001 58.5181 72.9814 58.3982 72.6541L54.2842 61.4753C54.0935 60.9568 53.5994 60.6122 53.0469 60.6122H28.4295C27.8786 60.6122 27.3857 60.9548 27.1937 61.4714L26.1146 64.3753C25.8609 65.0579 26.2086 65.8166 26.891 66.0704C27.5734 66.3242 28.3324 65.9764 28.5861 65.2938L29.346 63.2491H35.0861L31.5905 72.6552C31.4689 72.9812 31.1541 73.2004 30.8073 73.2004H25.6477L26.4292 71.0976C26.6829 70.4152 26.3352 69.6563 25.6528 69.4025C24.9706 69.1489 24.2114 69.4966 23.9578 70.1791L23.0372 72.6559C22.9802 72.8092 22.8807 72.941 22.7507 73.0368C22.6048 73.1437 22.433 73.2004 22.2543 73.2004H16.3603L35.9487 17.3583Z" fill="#0AA4F6"/>
<path d="M31.2991 54.4586H50.21C50.6375 54.4586 51.0383 54.2513 51.2854 53.9028C51.5326 53.5542 51.5955 53.1074 51.454 52.7039L41.9687 25.6593C41.7832 25.1309 41.2844 24.7772 40.7245 24.7772C40.7242 24.7772 40.7236 24.7772 40.7233 24.7772C40.1629 24.7777 39.664 25.1325 39.4796 25.6618L30.0542 52.7064C29.9138 53.1095 29.9772 53.5558 30.2244 53.9038C30.4717 54.2519 30.8721 54.4586 31.2991 54.4586ZM41.7077 51.8219L45.0181 42.3211L48.3504 51.8219H41.7077ZM40.7284 30.0902L43.6173 38.3273L38.9154 51.8219H33.1547L40.7284 30.0902Z" fill="url(#paint3_linear_43_183)"/>
<path d="M31.2991 54.4586H50.21C50.6375 54.4586 51.0383 54.2513 51.2854 53.9028C51.5326 53.5542 51.5955 53.1074 51.454 52.7039L41.9687 25.6593C41.7832 25.1309 41.2844 24.7772 40.7245 24.7772C40.7242 24.7772 40.7236 24.7772 40.7233 24.7772C40.1629 24.7777 39.664 25.1325 39.4796 25.6618L30.0542 52.7064C29.9138 53.1095 29.9772 53.5558 30.2244 53.9038C30.4717 54.2519 30.8721 54.4586 31.2991 54.4586ZM41.7077 51.8219L45.0181 42.3211L48.3504 51.8219H41.7077ZM40.7284 30.0902L43.6173 38.3273L38.9154 51.8219H33.1547L40.7284 30.0902Z" fill="#0AA4F6"/>
<defs>
<linearGradient id="paint0_linear_43_183" x1="34.4504" y1="0" x2="34.4504" y2="209.826" gradientUnits="userSpaceOnUse">
<stop stop-color="#5A717C"/>
<stop offset="1" stop-color="white" stop-opacity="0"/>
</linearGradient>
<linearGradient id="paint1_linear_43_183" x1="55.9945" y1="0" x2="55.9945" y2="209.826" gradientUnits="userSpaceOnUse">
<stop stop-color="#5A717C"/>
<stop offset="1" stop-color="white" stop-opacity="0"/>
</linearGradient>
<linearGradient id="paint2_linear_43_183" x1="45.0002" y1="14.1629" x2="45.0002" y2="157.95" gradientUnits="userSpaceOnUse">
<stop stop-color="#5A717C"/>
<stop offset="1" stop-color="white" stop-opacity="0"/>
</linearGradient>
<linearGradient id="paint3_linear_43_183" x1="40.7546" y1="24.7772" x2="40.7546" y2="93.9762" gradientUnits="userSpaceOnUse">
<stop stop-color="#5A717C"/>
<stop offset="1" stop-color="white" stop-opacity="0"/>
</linearGradient>
</defs>
</svg>
