<svg width="97" height="90" viewBox="0 0 97 90" fill="none" xmlns="http://www.w3.org/2000/svg">
<path d="M20.3176 53.7981C20.663 53.7981 21.0083 53.7246 21.3298 53.5779C28.7542 50.1913 29.8629 46.3922 29.8629 44.4288C29.8629 41.3778 27.4558 38.9881 24.3832 38.9881C22.5702 38.9881 21.2017 39.5866 20.3176 40.1473C19.4335 39.5864 18.065 38.9881 16.252 38.9881C13.1792 38.9881 10.7723 41.378 10.7723 44.4288C10.7723 46.3922 11.881 50.1915 19.3053 53.5779C19.6269 53.7246 19.9724 53.7981 20.3176 53.7981ZM13.6006 44.4286C13.6006 43.1621 14.53 41.8162 16.252 41.8162C17.5042 41.8162 18.4068 42.2582 18.9434 42.6289L18.944 42.629C19.7657 43.1964 20.8697 43.1962 21.6914 42.6289C22.2282 42.2582 23.1308 41.8162 24.383 41.8162C26.105 41.8162 27.0344 43.1623 27.0344 44.4286C27.0344 46.5868 24.5891 48.9512 20.3174 50.9302C16.0461 48.9514 13.6006 46.5869 13.6006 44.4286Z" fill="url(#paint0_linear_43_221)"/>
<path d="M20.3176 53.7981C20.663 53.7981 21.0083 53.7246 21.3298 53.5779C28.7542 50.1913 29.8629 46.3922 29.8629 44.4288C29.8629 41.3778 27.4558 38.9881 24.3832 38.9881C22.5702 38.9881 21.2017 39.5866 20.3176 40.1473C19.4335 39.5864 18.065 38.9881 16.252 38.9881C13.1792 38.9881 10.7723 41.378 10.7723 44.4288C10.7723 46.3922 11.881 50.1915 19.3053 53.5779C19.6269 53.7246 19.9724 53.7981 20.3176 53.7981ZM13.6006 44.4286C13.6006 43.1621 14.53 41.8162 16.252 41.8162C17.5042 41.8162 18.4068 42.2582 18.9434 42.6289L18.944 42.629C19.7657 43.1964 20.8697 43.1962 21.6914 42.6289C22.2282 42.2582 23.1308 41.8162 24.383 41.8162C26.105 41.8162 27.0344 43.1623 27.0344 44.4286C27.0344 46.5868 24.5891 48.9512 20.3174 50.9302C16.0461 48.9514 13.6006 46.5869 13.6006 44.4286Z" fill="#0AA4F6"/>
<path d="M63.2452 10.9629L40.7752 13.7103C40.0001 13.8049 39.4484 14.5103 39.5432 15.2854C39.6309 16.0025 40.2407 16.5282 40.9451 16.5282C41.0024 16.5282 41.0603 16.5246 41.1186 16.5174L63.5885 13.77C64.3637 13.6754 64.9154 12.97 64.8205 12.1949C64.7255 11.4194 64.019 10.8665 63.2452 10.9629Z" fill="url(#paint1_linear_43_221)"/>
<path d="M63.2452 10.9629L40.7752 13.7103C40.0001 13.8049 39.4484 14.5103 39.5432 15.2854C39.6309 16.0025 40.2407 16.5282 40.9451 16.5282C41.0024 16.5282 41.0603 16.5246 41.1186 16.5174L63.5885 13.77C64.3637 13.6754 64.9154 12.97 64.8205 12.1949C64.7255 11.4194 64.019 10.8665 63.2452 10.9629Z" fill="#98B7C6"/>
<path d="M96.1954 31.462C95.8012 30.6192 95.1024 29.9804 94.2277 29.6631L77.2076 23.4893L76.1367 14.7299C76.042 13.9546 75.3349 13.4021 74.5615 13.4979C73.7864 13.5926 73.2347 14.2979 73.3295 15.0731L74.2263 22.4078L64.5002 18.8798C63.6255 18.5626 62.6797 18.6049 61.8367 18.9989C61.1468 19.3215 60.5934 19.8484 60.2413 20.5085L41.8811 22.7536C41.1059 22.8482 40.5542 23.5536 40.6491 24.3287C40.7367 25.0458 41.3465 25.5715 42.0509 25.5715C42.1083 25.5715 42.1661 25.5679 42.2244 25.5607L59.1206 23.4948L56.7182 30.1177L42.9871 31.7965C42.212 31.8912 41.6603 32.5966 41.7551 33.3717C41.8428 34.0888 42.4526 34.6145 43.157 34.6145C43.2143 34.6145 43.2722 34.6109 43.3305 34.6037L55.6369 33.0989C55.1005 34.5775 53.6922 38.46 53.2345 39.722L44.093 40.8397C43.3178 40.9344 42.7661 41.6397 42.861 42.4149C42.9486 43.1319 43.5584 43.6576 44.2628 43.6576C44.3202 43.6576 44.3781 43.654 44.4363 43.6469L52.1532 42.7034L49.7508 49.3262L45.199 49.8829C44.4239 49.9777 43.8722 50.6829 43.967 51.458C44.0547 52.1751 44.6645 52.7008 45.3689 52.7008C45.4262 52.7008 45.4841 52.6972 45.5424 52.69L48.6695 52.3076L48.1044 53.8658C48.0891 53.9081 48.0746 53.9507 48.0609 53.9935H36.1202L30.5057 8.08401C30.4963 8.0069 30.5257 7.95052 30.5521 7.91677C30.5787 7.88302 30.6264 7.84078 30.7035 7.83117L71.6037 2.83019C71.681 2.82152 71.7372 2.85018 71.7711 2.87677C71.8049 2.90316 71.8471 2.95087 71.8565 3.02798L72.6607 9.6045C72.7554 10.3798 73.4617 10.9313 74.2359 10.8365C75.011 10.7418 75.5627 10.0365 75.4679 9.26133L74.6637 2.68501C74.5649 1.87499 74.1563 1.15189 73.5133 0.649019C72.8706 0.146339 72.0713 -0.0759641 71.2603 0.0230258L30.3603 5.024C29.5501 5.12299 28.8272 5.53158 28.3245 6.17436C27.8216 6.81732 27.5992 7.61754 27.6985 8.42737L30.0298 27.4923H3.80536C1.70715 27.4925 0 29.1994 0 31.2978V51.7574C0 52.5386 0.63297 53.1716 1.41414 53.1716C2.19531 53.1716 2.82828 52.5386 2.82828 51.7574V31.2978C2.82828 30.7591 3.26648 30.3207 3.80536 30.3207H30.3754L33.2701 53.9941H28.3732C26.2621 53.9941 24.5444 55.7116 24.5444 57.8228V62.5705H3.80536C3.26667 62.5705 2.82828 62.1323 2.82828 61.5935V57.2255C2.82828 56.4443 2.19531 55.8113 1.41414 55.8113C0.63297 55.8113 0 56.4443 0 57.2255V61.5935C0 63.6917 1.70715 65.3988 3.80536 65.3988H24.5446V86.1713C24.5446 88.2823 26.2621 90 28.3734 90H68.1658C70.2768 90 71.9946 88.2825 71.9946 86.1713V80.1659C71.9946 79.3847 71.3616 78.7517 70.5804 78.7517C69.7992 78.7517 69.1663 79.3847 69.1663 80.1659V86.1713C69.1663 86.723 68.7175 87.1717 68.1658 87.1717H28.3732C27.8215 87.1717 27.3727 86.723 27.3727 86.1713V57.8226C27.3727 57.2709 27.8215 56.8221 28.3732 56.8221H68.1656C68.7173 56.8221 69.1661 57.2709 69.1661 57.8226V74.6977C69.1661 75.4788 69.799 76.1118 70.5802 76.1118C71.3614 76.1118 71.9944 75.4788 71.9944 74.6977V66.239L79.9177 69.1131C80.7918 69.4299 81.738 69.3882 82.581 68.9938C83.424 68.5995 84.0628 67.9007 84.3802 67.026C84.4835 66.7411 95.9965 35.0017 96.3144 34.1255C96.6317 33.251 96.5895 32.3049 96.1954 31.462ZM81.7214 66.062C81.6409 66.2839 81.4748 66.3889 81.3831 66.4319C81.2915 66.4751 81.1045 66.5352 80.8822 66.4543L71.9944 63.2305V57.8228C71.9944 55.7118 70.2768 53.9941 68.1656 53.9941H51.0658L56.5687 38.8231C66.8486 37.405 70.3304 40.9063 74.3454 44.9439C77.268 47.8831 80.5479 51.1812 86.7201 52.2816L81.7214 66.062ZM93.6556 33.1611L87.7008 49.5778C82.0976 48.7285 79.301 45.9165 76.3511 42.9496C72.787 39.3652 69.1225 35.6796 60.85 35.6796C59.8523 35.6796 58.7878 35.7331 57.6484 35.847L62.6963 21.9309C62.7768 21.709 62.9429 21.6038 63.0345 21.561C63.1264 21.518 63.314 21.4584 63.5355 21.5385L93.2633 32.3218C93.4852 32.4024 93.5904 32.5685 93.6334 32.6603C93.6764 32.7521 93.7363 32.9392 93.6556 33.1611Z" fill="url(#paint2_linear_43_221)"/>
<path d="M96.1954 31.462C95.8012 30.6192 95.1024 29.9804 94.2277 29.6631L77.2076 23.4893L76.1367 14.7299C76.042 13.9546 75.3349 13.4021 74.5615 13.4979C73.7864 13.5926 73.2347 14.2979 73.3295 15.0731L74.2263 22.4078L64.5002 18.8798C63.6255 18.5626 62.6797 18.6049 61.8367 18.9989C61.1468 19.3215 60.5934 19.8484 60.2413 20.5085L41.8811 22.7536C41.1059 22.8482 40.5542 23.5536 40.6491 24.3287C40.7367 25.0458 41.3465 25.5715 42.0509 25.5715C42.1083 25.5715 42.1661 25.5679 42.2244 25.5607L59.1206 23.4948L56.7182 30.1177L42.9871 31.7965C42.212 31.8912 41.6603 32.5966 41.7551 33.3717C41.8428 34.0888 42.4526 34.6145 43.157 34.6145C43.2143 34.6145 43.2722 34.6109 43.3305 34.6037L55.6369 33.0989C55.1005 34.5775 53.6922 38.46 53.2345 39.722L44.093 40.8397C43.3178 40.9344 42.7661 41.6397 42.861 42.4149C42.9486 43.1319 43.5584 43.6576 44.2628 43.6576C44.3202 43.6576 44.3781 43.654 44.4363 43.6469L52.1532 42.7034L49.7508 49.3262L45.199 49.8829C44.4239 49.9777 43.8722 50.6829 43.967 51.458C44.0547 52.1751 44.6645 52.7008 45.3689 52.7008C45.4262 52.7008 45.4841 52.6972 45.5424 52.69L48.6695 52.3076L48.1044 53.8658C48.0891 53.9081 48.0746 53.9507 48.0609 53.9935H36.1202L30.5057 8.08401C30.4963 8.0069 30.5257 7.95052 30.5521 7.91677C30.5787 7.88302 30.6264 7.84078 30.7035 7.83117L71.6037 2.83019C71.681 2.82152 71.7372 2.85018 71.7711 2.87677C71.8049 2.90316 71.8471 2.95087 71.8565 3.02798L72.6607 9.6045C72.7554 10.3798 73.4617 10.9313 74.2359 10.8365C75.011 10.7418 75.5627 10.0365 75.4679 9.26133L74.6637 2.68501C74.5649 1.87499 74.1563 1.15189 73.5133 0.649019C72.8706 0.146339 72.0713 -0.0759641 71.2603 0.0230258L30.3603 5.024C29.5501 5.12299 28.8272 5.53158 28.3245 6.17436C27.8216 6.81732 27.5992 7.61754 27.6985 8.42737L30.0298 27.4923H3.80536C1.70715 27.4925 0 29.1994 0 31.2978V51.7574C0 52.5386 0.63297 53.1716 1.41414 53.1716C2.19531 53.1716 2.82828 52.5386 2.82828 51.7574V31.2978C2.82828 30.7591 3.26648 30.3207 3.80536 30.3207H30.3754L33.2701 53.9941H28.3732C26.2621 53.9941 24.5444 55.7116 24.5444 57.8228V62.5705H3.80536C3.26667 62.5705 2.82828 62.1323 2.82828 61.5935V57.2255C2.82828 56.4443 2.19531 55.8113 1.41414 55.8113C0.63297 55.8113 0 56.4443 0 57.2255V61.5935C0 63.6917 1.70715 65.3988 3.80536 65.3988H24.5446V86.1713C24.5446 88.2823 26.2621 90 28.3734 90H68.1658C70.2768 90 71.9946 88.2825 71.9946 86.1713V80.1659C71.9946 79.3847 71.3616 78.7517 70.5804 78.7517C69.7992 78.7517 69.1663 79.3847 69.1663 80.1659V86.1713C69.1663 86.723 68.7175 87.1717 68.1658 87.1717H28.3732C27.8215 87.1717 27.3727 86.723 27.3727 86.1713V57.8226C27.3727 57.2709 27.8215 56.8221 28.3732 56.8221H68.1656C68.7173 56.8221 69.1661 57.2709 69.1661 57.8226V74.6977C69.1661 75.4788 69.799 76.1118 70.5802 76.1118C71.3614 76.1118 71.9944 75.4788 71.9944 74.6977V66.239L79.9177 69.1131C80.7918 69.4299 81.738 69.3882 82.581 68.9938C83.424 68.5995 84.0628 67.9007 84.3802 67.026C84.4835 66.7411 95.9965 35.0017 96.3144 34.1255C96.6317 33.251 96.5895 32.3049 96.1954 31.462ZM81.7214 66.062C81.6409 66.2839 81.4748 66.3889 81.3831 66.4319C81.2915 66.4751 81.1045 66.5352 80.8822 66.4543L71.9944 63.2305V57.8228C71.9944 55.7118 70.2768 53.9941 68.1656 53.9941H51.0658L56.5687 38.8231C66.8486 37.405 70.3304 40.9063 74.3454 44.9439C77.268 47.8831 80.5479 51.1812 86.7201 52.2816L81.7214 66.062ZM93.6556 33.1611L87.7008 49.5778C82.0976 48.7285 79.301 45.9165 76.3511 42.9496C72.787 39.3652 69.1225 35.6796 60.85 35.6796C59.8523 35.6796 58.7878 35.7331 57.6484 35.847L62.6963 21.9309C62.7768 21.709 62.9429 21.6038 63.0345 21.561C63.1264 21.518 63.314 21.4584 63.5355 21.5385L93.2633 32.3218C93.4852 32.4024 93.5904 32.5685 93.6334 32.6603C93.6764 32.7521 93.7363 32.9392 93.6556 33.1611Z" fill="#98B7C6"/>
<path d="M85.5995 32.6128C83.3821 31.8086 80.9244 32.958 80.1202 35.175C79.7308 36.249 79.7827 37.4103 80.2665 38.4453C80.7505 39.4802 81.6084 40.2646 82.6824 40.6542C83.1585 40.8269 83.6518 40.9129 84.1435 40.9129C84.761 40.9129 85.3765 40.7773 85.9527 40.508C86.9876 40.024 87.772 39.1661 88.1618 38.0921C88.9661 35.8749 87.8165 33.417 85.5995 32.6128ZM85.5032 37.1277C85.3714 37.4914 85.1057 37.7821 84.755 37.946C84.4045 38.11 84.0106 38.1276 83.6473 37.9956C83.2833 37.8636 82.9926 37.5979 82.8287 37.2474C82.6649 36.8969 82.6472 36.5034 82.7792 36.1397C82.9926 35.5512 83.55 35.1848 84.1424 35.1848C84.3061 35.1848 84.4724 35.2127 84.6349 35.2718C85.3863 35.5438 85.7756 36.3765 85.5032 37.1277Z" fill="url(#paint3_linear_43_221)"/>
<path d="M85.5995 32.6128C83.3821 31.8086 80.9244 32.958 80.1202 35.175C79.7308 36.249 79.7827 37.4103 80.2665 38.4453C80.7505 39.4802 81.6084 40.2646 82.6824 40.6542C83.1585 40.8269 83.6518 40.9129 84.1435 40.9129C84.761 40.9129 85.3765 40.7773 85.9527 40.508C86.9876 40.024 87.772 39.1661 88.1618 38.0921C88.9661 35.8749 87.8165 33.417 85.5995 32.6128ZM85.5032 37.1277C85.3714 37.4914 85.1057 37.7821 84.755 37.946C84.4045 38.11 84.0106 38.1276 83.6473 37.9956C83.2833 37.8636 82.9926 37.5979 82.8287 37.2474C82.6649 36.8969 82.6472 36.5034 82.7792 36.1397C82.9926 35.5512 83.55 35.1848 84.1424 35.1848C84.3061 35.1848 84.4724 35.2127 84.6349 35.2718C85.3863 35.5438 85.7756 36.3765 85.5032 37.1277Z" fill="#0AA4F6"/>
<path d="M46.0463 64.3826C45.1566 63.7798 44.0139 63.7179 43.0638 64.2215C42.1143 64.7252 41.5243 65.7058 41.5243 66.7808V77.213C41.5243 78.2879 42.1143 79.2686 43.064 79.7722C44.0194 80.279 45.1622 80.2104 46.0465 79.611L53.7427 74.3951C54.5391 73.8554 55.0145 72.9591 55.0145 71.9969C55.0145 71.0349 54.5391 70.1385 53.7429 69.5989L46.0463 64.3826ZM52.156 72.0538L44.4599 77.2697C44.441 77.2822 44.4252 77.2927 44.389 77.2737C44.3526 77.2543 44.3526 77.2352 44.3526 77.2132V66.7808C44.3526 66.7587 44.3526 66.7395 44.389 66.7202C44.4033 66.7125 44.4146 66.7095 44.424 66.7095C44.4386 66.7095 44.4487 66.7165 44.4597 66.7238L52.156 71.9399C52.1562 71.9401 52.1562 71.9401 52.1562 71.9401C52.1688 71.9488 52.1862 71.9605 52.1862 71.9969C52.1862 72.0333 52.169 72.045 52.156 72.0538Z" fill="url(#paint4_linear_43_221)"/>
<path d="M46.0463 64.3826C45.1566 63.7798 44.0139 63.7179 43.0638 64.2215C42.1143 64.7252 41.5243 65.7058 41.5243 66.7808V77.213C41.5243 78.2879 42.1143 79.2686 43.064 79.7722C44.0194 80.279 45.1622 80.2104 46.0465 79.611L53.7427 74.3951C54.5391 73.8554 55.0145 72.9591 55.0145 71.9969C55.0145 71.0349 54.5391 70.1385 53.7429 69.5989L46.0463 64.3826ZM52.156 72.0538L44.4599 77.2697C44.441 77.2822 44.4252 77.2927 44.389 77.2737C44.3526 77.2543 44.3526 77.2352 44.3526 77.2132V66.7808C44.3526 66.7587 44.3526 66.7395 44.389 66.7202C44.4033 66.7125 44.4146 66.7095 44.424 66.7095C44.4386 66.7095 44.4487 66.7165 44.4597 66.7238L52.156 71.9399C52.1562 71.9401 52.1562 71.9401 52.1562 71.9401C52.1688 71.9488 52.1862 71.9605 52.1862 71.9969C52.1862 72.0333 52.169 72.045 52.156 72.0538Z" fill="#0AA4F6"/>
<defs>
<linearGradient id="paint0_linear_43_221" x1="20.3176" y1="38.9881" x2="20.3176" y2="73.5161" gradientUnits="userSpaceOnUse">
<stop stop-color="#5A717C"/>
<stop offset="1" stop-color="white" stop-opacity="0"/>
</linearGradient>
<linearGradient id="paint1_linear_43_221" x1="52.1819" y1="10.952" x2="52.1819" y2="23.9523" gradientUnits="userSpaceOnUse">
<stop stop-color="#5A717C"/>
<stop offset="1" stop-color="white" stop-opacity="0"/>
</linearGradient>
<linearGradient id="paint2_linear_43_221" x1="48.2626" y1="0" x2="48.2626" y2="209.826" gradientUnits="userSpaceOnUse">
<stop stop-color="#5A717C"/>
<stop offset="1" stop-color="white" stop-opacity="0"/>
</linearGradient>
<linearGradient id="paint3_linear_43_221" x1="84.1401" y1="32.3562" x2="84.1401" y2="52.3052" gradientUnits="userSpaceOnUse">
<stop stop-color="#5A717C"/>
<stop offset="1" stop-color="white" stop-opacity="0"/>
</linearGradient>
<linearGradient id="paint4_linear_43_221" x1="48.2694" y1="63.8829" x2="48.2694" y2="101.717" gradientUnits="userSpaceOnUse">
<stop stop-color="#5A717C"/>
<stop offset="1" stop-color="white" stop-opacity="0"/>
</linearGradient>
</defs>
</svg>
