<svg width="88" height="89" viewBox="0 0 88 89" fill="none" xmlns="http://www.w3.org/2000/svg">
<path d="M85.8186 22.9519L65.1587 2.29207C62.2503 -0.616323 57.5182 -0.61615 54.6091 2.29207L42.9915 13.9097C42.3137 14.5874 42.3137 15.6864 42.9915 16.3644C43.6694 17.0421 44.7682 17.0421 45.4462 16.3644L57.0638 4.74677C58.6191 3.19147 61.1496 3.19182 62.7042 4.74677L83.3641 25.4066C84.9192 26.9616 84.9192 29.492 83.3641 31.0471L49.3256 65.0854C48.5724 65.8388 47.5707 66.2536 46.5054 66.2536C45.4401 66.2536 44.4385 65.8386 43.6852 65.0854L42.2642 63.6644L50.1964 55.7322C52.8932 53.0352 52.8932 48.647 50.1964 45.9501C47.4994 43.2531 43.1112 43.2527 40.4142 45.9501L33.3813 52.983L32.2424 52.9991C32.0348 53.0021 31.8284 53.0115 31.6222 53.0227L23.0253 44.4257C21.4702 42.8705 21.4702 40.3403 23.0253 38.7852L34.4006 27.4099C35.0784 26.7321 35.0784 25.6331 34.4006 24.9552C33.723 24.2776 32.6239 24.2776 31.9461 24.9552L20.5708 36.3305C17.6622 39.2391 17.6622 43.9716 20.5708 46.8802L27.5208 53.83C25.4094 54.5638 23.4733 55.7669 21.851 57.3891C19.0603 60.1796 17.501 63.8897 17.46 67.8362L17.4472 69.0693L0.508322 86.0085C-0.169441 86.6863 -0.169441 87.7853 0.508322 88.4632C0.84729 88.802 1.29144 88.9716 1.73558 88.9716C2.17973 88.9716 2.62405 88.802 2.96285 88.4632L20.4026 71.0236C20.7237 70.7024 20.9061 70.2683 20.9108 69.8142L20.9309 67.8724C20.9624 64.8396 22.1608 61.9885 24.3053 59.8439C26.4388 57.7107 29.2748 56.5126 32.2913 56.47L34.1347 56.4442C34.5865 56.4378 35.018 56.2555 35.3377 55.936L42.8689 48.4048C44.2125 47.0614 46.3983 47.0614 47.7419 48.4048C49.0854 49.7481 49.0854 51.9343 47.7419 53.2777L36.4454 64.5744C35.7674 65.2522 35.7674 66.3512 36.4454 67.0291C37.123 67.7067 38.2221 67.7067 38.8999 67.0291L39.8099 66.1191L41.2308 67.5401C42.6853 68.9945 44.5952 69.7216 46.5058 69.7214C48.4158 69.7212 50.3266 68.9942 51.7807 67.5401L59.8439 59.4768L55.3533 71.6375C54.033 75.2129 51.0548 77.9665 47.3873 79.0032L33.5045 82.9266C33.219 83.0073 32.959 83.1598 32.7492 83.3695L30.0813 86.0373C29.4036 86.7151 29.4036 87.8141 30.0813 88.492C30.4203 88.8308 30.8645 89.0004 31.3086 89.0004C31.7528 89.0004 32.1971 88.8308 32.5359 88.492L34.8838 86.1441L48.3313 82.3438C53.0638 81.0061 56.906 77.4534 58.6097 72.8401L65.7107 53.6104L85.8193 33.5018C88.727 30.593 88.727 25.8605 85.8186 22.9519Z" fill="#98B7C6"/>
<path d="M56.2694 47.1622C56.6084 47.501 57.0525 47.6706 57.4967 47.6706C57.9408 47.6706 58.385 47.501 58.724 47.1622L76.7375 29.1487C77.4153 28.4709 77.4153 27.3719 76.7375 26.694C76.0596 26.0164 74.9609 26.0164 74.2828 26.694L56.2694 44.7075C55.5917 45.3853 55.5917 46.4843 56.2694 47.1622Z" fill="#0AA4F6"/>
<path d="M37.2845 33.0506L31.4835 38.8515C30.8058 39.5293 30.8058 40.6283 31.4835 41.3062C31.8225 41.645 32.2667 41.8146 32.7108 41.8146C33.155 41.8146 33.5993 41.645 33.9381 41.3062L39.7391 35.5052C40.4168 34.8275 40.4168 33.7285 39.7391 33.0506C39.0613 32.373 37.9623 32.373 37.2845 33.0506Z" fill="#0AA4F6"/>
<path d="M38.6958 22.3948C39.1523 22.3948 39.6001 22.2091 39.9229 21.8861C40.2458 21.5635 40.4315 21.1172 40.4315 20.6592C40.4315 20.2027 40.2458 19.7549 39.9229 19.4321C39.6001 19.1093 39.1523 18.9236 38.6958 18.9236C38.2394 18.9236 37.7916 19.1091 37.4687 19.4321C37.1459 19.7551 36.9602 20.2027 36.9602 20.6592C36.9602 21.1174 37.1459 21.5635 37.4687 21.8861C37.7916 22.2091 38.2395 22.3948 38.6958 22.3948Z" fill="#98B7C6"/>
<path d="M60.1893 24.9979C56.7906 24.9979 54.0254 22.2327 54.0254 18.834C54.0254 15.4352 56.7906 12.67 60.1893 12.67C63.588 12.67 66.353 15.4352 66.353 18.834C66.353 22.2327 63.588 24.9979 60.1893 24.9979ZM60.1893 16.1413C58.7045 16.1413 57.4966 17.3491 57.4966 18.834C57.4966 20.3188 58.7045 21.5266 60.1893 21.5266C61.674 21.5266 62.8818 20.3188 62.8818 18.834C62.8818 17.3491 61.674 16.1413 60.1893 16.1413Z" fill="#0AA4F6"/>
</svg>
