<svg width="88" height="88" viewBox="0 0 88 88" fill="none" xmlns="http://www.w3.org/2000/svg">
<path d="M52.9536 88H35.0464C34.097 88 33.3276 87.2306 33.3276 86.2812V80.4241C30.7139 79.6594 28.1895 78.6127 25.7933 77.2994L21.6495 81.4439C20.9781 82.1146 19.8898 82.1146 19.2184 81.4439L6.55609 68.7816C6.23383 68.4593 6.05255 68.0222 6.05255 67.5663C6.05255 67.1105 6.23383 66.6734 6.55609 66.3505L10.7006 62.2067C9.388 59.8105 8.34064 57.2861 7.57593 54.6724H1.71875C0.769409 54.6724 0 53.903 0 52.9536V35.0464C0 34.097 0.769409 33.3276 1.71875 33.3276H7.57593C8.34064 30.7139 9.38733 28.1888 10.7006 25.7933L6.55609 21.6495C6.23383 21.3266 6.05255 20.8895 6.05255 20.4337C6.05255 19.9778 6.23383 19.5407 6.55609 19.2184L19.2184 6.55609C19.8898 5.88538 20.9781 5.88538 21.6489 6.55609L25.7933 10.7006C28.1888 9.38733 30.7139 8.34064 33.3276 7.57593V1.71875C33.3276 0.769409 34.097 0 35.0464 0H52.9536C53.903 0 54.6724 0.769409 54.6724 1.71875V7.57593C57.2861 8.34064 59.8105 9.38733 62.206 10.7006L66.3505 6.55609C67.0219 5.88538 68.1102 5.88538 68.7809 6.55609L81.4432 19.2184C82.1146 19.8898 82.1146 20.9781 81.4432 21.6495L77.2988 25.7933C78.612 28.1895 79.6587 30.7139 80.4241 33.3276H86.2812C87.2306 33.3276 88 34.0977 88 35.0464V52.9536C88 53.903 87.2306 54.6724 86.2812 54.6724H80.4241C79.6594 57.2861 78.612 59.8112 77.2994 62.2067L81.4439 66.3511C82.1153 67.0219 82.1153 68.1102 81.4439 68.7816L68.7816 81.4439C68.1102 82.1153 67.0219 82.1153 66.3505 81.4439L62.2067 77.2994C59.8105 78.6127 57.2861 79.6594 54.6724 80.4247V86.2812C54.6724 87.2306 53.903 88 52.9536 88ZM36.7651 84.5625H51.2349V79.1122C51.2349 78.3267 51.7679 77.6405 52.53 77.4471C55.7184 76.6361 58.7752 75.3685 61.6152 73.6793C62.2913 73.2772 63.1533 73.3846 63.7092 73.9405L67.5657 77.7976L77.7976 67.5663L73.9405 63.7092C73.3853 63.1533 73.2772 62.2913 73.6793 61.6152C75.3685 58.7752 76.6361 55.7184 77.4465 52.53C77.6405 51.7679 78.326 51.2349 79.1122 51.2349H84.5625V36.7651H79.1122C78.3267 36.7651 77.6405 36.2314 77.4465 35.47C76.6361 32.2809 75.3685 29.2248 73.6793 26.3848C73.2772 25.7087 73.3853 24.8467 73.9412 24.2908L77.7976 20.4337L67.5663 10.2024L63.7092 14.0595C63.1533 14.6147 62.2913 14.7228 61.6152 14.3207C58.7752 12.6315 55.7184 11.3639 52.5306 10.5529C51.7686 10.3595 51.2349 9.67334 51.2349 8.88782V3.4375H36.7651V8.88782C36.7651 9.67334 36.2321 10.3595 35.47 10.5529C32.2816 11.3639 29.2255 12.6315 26.3855 14.3207C25.7094 14.7228 24.8474 14.6147 24.2908 14.0595L20.4343 10.2024L10.2024 20.4337L14.0595 24.2908C14.6154 24.8467 14.7228 25.7087 14.3214 26.3848C12.6315 29.2248 11.3639 32.2816 10.5535 35.47C10.3602 36.2321 9.67401 36.7651 8.88782 36.7651H3.4375V51.2349H8.88782C9.67334 51.2349 10.3595 51.7686 10.5535 52.53C11.3639 55.7184 12.6315 58.7752 14.3207 61.6152C14.7228 62.2913 14.6147 63.1533 14.0588 63.7092L10.2024 67.5663L20.4337 77.7976L24.2908 73.9405C24.8467 73.3853 25.7087 73.2772 26.3848 73.6793C29.2248 75.3685 32.2816 76.6361 35.4694 77.4471C36.2314 77.6405 36.7651 78.3267 36.7651 79.1122V84.5625Z" fill="black"/>
<path d="M52.9536 88H35.0464C34.097 88 33.3276 87.2306 33.3276 86.2812V80.4241C30.7139 79.6594 28.1895 78.6127 25.7933 77.2994L21.6495 81.4439C20.9781 82.1146 19.8898 82.1146 19.2184 81.4439L6.55609 68.7816C6.23383 68.4593 6.05255 68.0222 6.05255 67.5663C6.05255 67.1105 6.23383 66.6734 6.55609 66.3505L10.7006 62.2067C9.388 59.8105 8.34064 57.2861 7.57593 54.6724H1.71875C0.769409 54.6724 0 53.903 0 52.9536V35.0464C0 34.097 0.769409 33.3276 1.71875 33.3276H7.57593C8.34064 30.7139 9.38733 28.1888 10.7006 25.7933L6.55609 21.6495C6.23383 21.3266 6.05255 20.8895 6.05255 20.4337C6.05255 19.9778 6.23383 19.5407 6.55609 19.2184L19.2184 6.55609C19.8898 5.88538 20.9781 5.88538 21.6489 6.55609L25.7933 10.7006C28.1888 9.38733 30.7139 8.34064 33.3276 7.57593V1.71875C33.3276 0.769409 34.097 0 35.0464 0H52.9536C53.903 0 54.6724 0.769409 54.6724 1.71875V7.57593C57.2861 8.34064 59.8105 9.38733 62.206 10.7006L66.3505 6.55609C67.0219 5.88538 68.1102 5.88538 68.7809 6.55609L81.4432 19.2184C82.1146 19.8898 82.1146 20.9781 81.4432 21.6495L77.2988 25.7933C78.612 28.1895 79.6587 30.7139 80.4241 33.3276H86.2812C87.2306 33.3276 88 34.0977 88 35.0464V52.9536C88 53.903 87.2306 54.6724 86.2812 54.6724H80.4241C79.6594 57.2861 78.612 59.8112 77.2994 62.2067L81.4439 66.3511C82.1153 67.0219 82.1153 68.1102 81.4439 68.7816L68.7816 81.4439C68.1102 82.1153 67.0219 82.1153 66.3505 81.4439L62.2067 77.2994C59.8105 78.6127 57.2861 79.6594 54.6724 80.4247V86.2812C54.6724 87.2306 53.903 88 52.9536 88ZM36.7651 84.5625H51.2349V79.1122C51.2349 78.3267 51.7679 77.6405 52.53 77.4471C55.7184 76.6361 58.7752 75.3685 61.6152 73.6793C62.2913 73.2772 63.1533 73.3846 63.7092 73.9405L67.5657 77.7976L77.7976 67.5663L73.9405 63.7092C73.3853 63.1533 73.2772 62.2913 73.6793 61.6152C75.3685 58.7752 76.6361 55.7184 77.4465 52.53C77.6405 51.7679 78.326 51.2349 79.1122 51.2349H84.5625V36.7651H79.1122C78.3267 36.7651 77.6405 36.2314 77.4465 35.47C76.6361 32.2809 75.3685 29.2248 73.6793 26.3848C73.2772 25.7087 73.3853 24.8467 73.9412 24.2908L77.7976 20.4337L67.5663 10.2024L63.7092 14.0595C63.1533 14.6147 62.2913 14.7228 61.6152 14.3207C58.7752 12.6315 55.7184 11.3639 52.5306 10.5529C51.7686 10.3595 51.2349 9.67334 51.2349 8.88782V3.4375H36.7651V8.88782C36.7651 9.67334 36.2321 10.3595 35.47 10.5529C32.2816 11.3639 29.2255 12.6315 26.3855 14.3207C25.7094 14.7228 24.8474 14.6147 24.2908 14.0595L20.4343 10.2024L10.2024 20.4337L14.0595 24.2908C14.6154 24.8467 14.7228 25.7087 14.3214 26.3848C12.6315 29.2248 11.3639 32.2816 10.5535 35.47C10.3602 36.2321 9.67401 36.7651 8.88782 36.7651H3.4375V51.2349H8.88782C9.67334 51.2349 10.3595 51.7686 10.5535 52.53C11.3639 55.7184 12.6315 58.7752 14.3207 61.6152C14.7228 62.2913 14.6147 63.1533 14.0588 63.7092L10.2024 67.5663L20.4337 77.7976L24.2908 73.9405C24.8467 73.3853 25.7087 73.2772 26.3848 73.6793C29.2248 75.3685 32.2816 76.6361 35.4694 77.4471C36.2314 77.6405 36.7651 78.3267 36.7651 79.1122V84.5625Z" fill="#98B7C6"/>
<path d="M42.4249 49.2697C41.9691 49.2697 41.532 49.0884 41.2097 48.7661L37.215 44.7714C36.5436 44.1006 36.5436 43.0123 37.215 42.3409C37.8864 41.6696 38.9747 41.6696 39.6454 42.3409L42.4249 45.1198L48.311 39.2338C48.9824 38.5624 50.0707 38.5624 50.7414 39.2338C51.4128 39.9052 51.4128 40.9935 50.7414 41.6642L43.6401 48.7661C43.3179 49.0884 42.8808 49.2697 42.4249 49.2697Z" fill="black"/>
<path d="M42.4249 49.2697C41.9691 49.2697 41.532 49.0884 41.2097 48.7661L37.215 44.7714C36.5436 44.1006 36.5436 43.0123 37.215 42.3409C37.8864 41.6696 38.9747 41.6696 39.6454 42.3409L42.4249 45.1198L48.311 39.2338C48.9824 38.5624 50.0707 38.5624 50.7414 39.2338C51.4128 39.9052 51.4128 40.9935 50.7414 41.6642L43.6401 48.7661C43.3179 49.0884 42.8808 49.2697 42.4249 49.2697Z" fill="#0AA4F6"/>
<path d="M43.9778 62.7343C43.8697 62.7343 43.7616 62.7242 43.6548 62.7034C34.4803 60.9457 27.8215 52.8898 27.8215 43.5488V31.492C27.8215 30.7401 28.311 30.0754 29.0287 29.8511L43.4279 25.3555C43.6031 25.2964 43.7918 25.2682 43.9778 25.2649H43.9791C44.1685 25.2649 44.3538 25.2971 44.529 25.3562L58.9276 29.8511C59.6453 30.0754 60.134 30.7401 60.134 31.492V43.5488C60.134 52.8898 53.4759 60.9457 44.3014 62.7034C44.1946 62.7242 44.0865 62.7343 43.9778 62.7343ZM31.259 32.7556V43.5488C31.259 51.1328 36.5885 57.6888 43.9778 59.2619C51.3677 57.6888 56.6965 51.1328 56.6965 43.5488V32.7556L43.9778 28.785L31.259 32.7556Z" fill="black"/>
<path d="M43.9778 62.7343C43.8697 62.7343 43.7616 62.7242 43.6548 62.7034C34.4803 60.9457 27.8215 52.8898 27.8215 43.5488V31.492C27.8215 30.7401 28.311 30.0754 29.0287 29.8511L43.4279 25.3555C43.6031 25.2964 43.7918 25.2682 43.9778 25.2649H43.9791C44.1685 25.2649 44.3538 25.2971 44.529 25.3562L58.9276 29.8511C59.6453 30.0754 60.134 30.7401 60.134 31.492V43.5488C60.134 52.8898 53.4759 60.9457 44.3014 62.7034C44.1946 62.7242 44.0865 62.7343 43.9778 62.7343ZM31.259 32.7556V43.5488C31.259 51.1328 36.5885 57.6888 43.9778 59.2619C51.3677 57.6888 56.6965 51.1328 56.6965 43.5488V32.7556L43.9778 28.785L31.259 32.7556Z" fill="#0AA4F6"/>
<path d="M43.9778 71.8417C28.6265 71.8417 16.1367 59.3519 16.1367 44C16.1367 37.9407 18.0495 32.1802 21.6689 27.3409C25.1669 22.6633 30.1499 19.1365 35.6996 17.4104C36.606 17.1284 37.5694 17.6346 37.8514 18.541C38.1334 19.4474 37.6271 20.4108 36.7208 20.6928C26.4647 23.8826 19.5742 33.2491 19.5742 44C19.5742 57.4566 30.5219 68.4042 43.9785 68.4042C57.4344 68.4042 68.382 57.4566 68.382 44C68.382 33.2034 61.454 23.8248 51.1415 20.6639C50.2344 20.386 49.7242 19.4246 50.0021 18.5169C50.2808 17.6091 51.2415 17.0989 52.1492 17.3775C57.7258 19.0869 62.735 22.6096 66.2551 27.2972C69.8953 32.1453 71.8195 37.9213 71.8195 44C71.8195 59.3519 59.3297 71.8417 43.9778 71.8417Z" fill="black"/>
<path d="M43.9778 71.8417C28.6265 71.8417 16.1367 59.3519 16.1367 44C16.1367 37.9407 18.0495 32.1802 21.6689 27.3409C25.1669 22.6633 30.1499 19.1365 35.6996 17.4104C36.606 17.1284 37.5694 17.6346 37.8514 18.541C38.1334 19.4474 37.6271 20.4108 36.7208 20.6928C26.4647 23.8826 19.5742 33.2491 19.5742 44C19.5742 57.4566 30.5219 68.4042 43.9785 68.4042C57.4344 68.4042 68.382 57.4566 68.382 44C68.382 33.2034 61.454 23.8248 51.1415 20.6639C50.2344 20.386 49.7242 19.4246 50.0021 18.5169C50.2808 17.6091 51.2415 17.0989 52.1492 17.3775C57.7258 19.0869 62.735 22.6096 66.2551 27.2972C69.8953 32.1453 71.8195 37.9213 71.8195 44C71.8195 59.3519 59.3297 71.8417 43.9778 71.8417Z" fill="#98B7C6"/>
<path d="M43.9778 19.5957C43.5253 19.5957 43.0822 19.4117 42.7626 19.0915C42.443 18.7719 42.259 18.3301 42.259 17.877C42.259 17.4244 42.443 16.9813 42.7626 16.6617C43.0822 16.3422 43.5253 16.1582 43.9778 16.1582C44.4316 16.1582 44.8727 16.3415 45.193 16.6617C45.5139 16.9813 45.6965 17.4244 45.6965 17.877C45.6965 18.3301 45.5139 18.7719 45.193 19.0915C44.8727 19.4111 44.4316 19.5957 43.9778 19.5957Z" fill="black"/>
<path d="M43.9778 19.5957C43.5253 19.5957 43.0822 19.4117 42.7626 19.0915C42.443 18.7719 42.259 18.3301 42.259 17.877C42.259 17.4244 42.443 16.9813 42.7626 16.6617C43.0822 16.3422 43.5253 16.1582 43.9778 16.1582C44.4316 16.1582 44.8727 16.3415 45.193 16.6617C45.5139 16.9813 45.6965 17.4244 45.6965 17.877C45.6965 18.3301 45.5139 18.7719 45.193 19.0915C44.8727 19.4111 44.4316 19.5957 43.9778 19.5957Z" fill="#98B7C6"/>
</svg>
