<svg width="90" height="90" viewBox="0 0 90 90" fill="none" xmlns="http://www.w3.org/2000/svg">
<path d="M78.6637 11.3365C71.3533 4.0261 61.6336 0 51.295 0C40.9564 0 31.2367 4.0261 23.9265 11.3365C23.3925 11.8705 22.8683 12.4258 22.3685 12.9869C21.8834 13.5317 21.9315 14.3668 22.4765 14.852C23.0214 15.3373 23.8565 15.2888 24.3415 14.744C24.8075 14.2207 25.2965 13.7029 25.7947 13.2045C32.6061 6.39318 41.6623 2.64182 51.2952 2.64182C60.928 2.64182 69.9841 6.393 76.7955 13.2045C90.8564 27.2655 90.8564 50.1444 76.7955 64.2053C69.9841 71.0167 60.9278 74.768 51.2952 74.768C41.6623 74.768 32.6061 71.0169 25.7947 64.2053C19.8724 58.2831 16.1782 50.4377 15.3926 42.1147C14.6171 33.899 16.6894 25.6119 21.2275 18.7798C21.6311 18.1721 21.4657 17.3521 20.858 16.9485C20.2505 16.5449 19.4305 16.7103 19.0267 17.318C14.155 24.6523 11.9301 33.5469 12.7624 42.363C13.4061 49.1834 15.8711 55.7033 19.8285 61.2351L15.9493 65.1143C15.4334 64.5991 14.5974 64.5991 14.0818 65.1148L2.23397 76.9627C-0.744655 79.9411 -0.744655 84.7878 2.23397 87.7662C3.72301 89.2556 5.67929 90.0002 7.63556 90.0002C9.59184 90.0002 11.5481 89.2556 13.0373 87.7664L16.3858 84.4179C16.9017 83.902 16.9017 83.0656 16.3858 82.5497C15.8699 82.0338 15.0335 82.0338 14.5176 82.5497L11.1691 85.8982C10.2252 86.8421 8.97027 87.3619 7.63538 87.3619C6.3005 87.3619 5.04559 86.8421 4.10165 85.8982C3.1577 84.9542 2.63791 83.6993 2.63791 82.3644C2.63791 81.0296 3.1577 79.7747 4.10165 78.8307L15.0154 67.9169L22.0827 74.9842L18.2537 78.8133C17.7377 79.3292 17.7377 80.1656 18.2537 80.6815C18.7696 81.1974 19.6059 81.1974 20.1219 80.6815L24.8848 75.9185C25.4006 75.4028 25.4008 74.5668 24.8854 74.051L28.757 70.1794C35.2851 74.8751 43.0944 77.4102 51.2946 77.4102C61.6332 77.4102 71.3527 73.3841 78.6633 66.0737C85.9739 58.7633 90 49.0434 90 38.705C90 28.3666 85.9739 18.6469 78.6637 11.3365ZM23.0175 72.1826L17.8172 66.9823L21.452 63.3475C22.2312 64.2918 23.0555 65.2027 23.9263 66.0735C24.8001 66.9473 25.7093 67.7726 26.6488 68.5513L23.0175 72.1826Z" fill="black"/>
<path d="M78.6637 11.3365C71.3533 4.0261 61.6336 0 51.295 0C40.9564 0 31.2367 4.0261 23.9265 11.3365C23.3925 11.8705 22.8683 12.4258 22.3685 12.9869C21.8834 13.5317 21.9315 14.3668 22.4765 14.852C23.0214 15.3373 23.8565 15.2888 24.3415 14.744C24.8075 14.2207 25.2965 13.7029 25.7947 13.2045C32.6061 6.39318 41.6623 2.64182 51.2952 2.64182C60.928 2.64182 69.9841 6.393 76.7955 13.2045C90.8564 27.2655 90.8564 50.1444 76.7955 64.2053C69.9841 71.0167 60.9278 74.768 51.2952 74.768C41.6623 74.768 32.6061 71.0169 25.7947 64.2053C19.8724 58.2831 16.1782 50.4377 15.3926 42.1147C14.6171 33.899 16.6894 25.6119 21.2275 18.7798C21.6311 18.1721 21.4657 17.3521 20.858 16.9485C20.2505 16.5449 19.4305 16.7103 19.0267 17.318C14.155 24.6523 11.9301 33.5469 12.7624 42.363C13.4061 49.1834 15.8711 55.7033 19.8285 61.2351L15.9493 65.1143C15.4334 64.5991 14.5974 64.5991 14.0818 65.1148L2.23397 76.9627C-0.744655 79.9411 -0.744655 84.7878 2.23397 87.7662C3.72301 89.2556 5.67929 90.0002 7.63556 90.0002C9.59184 90.0002 11.5481 89.2556 13.0373 87.7664L16.3858 84.4179C16.9017 83.902 16.9017 83.0656 16.3858 82.5497C15.8699 82.0338 15.0335 82.0338 14.5176 82.5497L11.1691 85.8982C10.2252 86.8421 8.97027 87.3619 7.63538 87.3619C6.3005 87.3619 5.04559 86.8421 4.10165 85.8982C3.1577 84.9542 2.63791 83.6993 2.63791 82.3644C2.63791 81.0296 3.1577 79.7747 4.10165 78.8307L15.0154 67.9169L22.0827 74.9842L18.2537 78.8133C17.7377 79.3292 17.7377 80.1656 18.2537 80.6815C18.7696 81.1974 19.6059 81.1974 20.1219 80.6815L24.8848 75.9185C25.4006 75.4028 25.4008 74.5668 24.8854 74.051L28.757 70.1794C35.2851 74.8751 43.0944 77.4102 51.2946 77.4102C61.6332 77.4102 71.3527 73.3841 78.6633 66.0737C85.9739 58.7633 90 49.0434 90 38.705C90 28.3666 85.9739 18.6469 78.6637 11.3365ZM23.0175 72.1826L17.8172 66.9823L21.452 63.3475C22.2312 64.2918 23.0555 65.2027 23.9263 66.0735C24.8001 66.9473 25.7093 67.7726 26.6488 68.5513L23.0175 72.1826Z" fill="#98B7C6"/>
<path d="M64.8085 66.8661C67.9821 65.3431 70.8647 63.2976 73.3763 60.7862C85.5518 48.6105 85.5518 28.7993 73.3763 16.6236C61.2004 4.44795 41.3895 4.44813 29.2138 16.6236C17.0383 28.7993 17.0383 48.6105 29.2138 60.7862C35.1424 66.7147 43.1466 69.9287 51.3319 69.9286C54.105 69.9286 56.8998 69.5596 59.6404 68.8022C60.3435 68.6079 60.7561 67.8804 60.5618 67.1771C60.3672 66.4737 59.6397 66.0614 58.9367 66.2556C49.0205 68.9955 38.3478 66.1839 31.082 58.9179C19.9364 47.7723 19.9364 29.6373 31.082 18.4919C42.2274 7.34659 60.3621 7.34624 71.5081 18.4919C82.6537 29.6375 82.6537 47.7725 71.5083 58.9179C69.208 61.2179 66.5695 63.0907 63.6656 64.4842C63.0078 64.8 62.7306 65.5889 63.0461 66.2466C63.3618 66.9046 64.1509 67.1813 64.8085 66.8661Z" fill="black"/>
<path d="M64.8085 66.8661C67.9821 65.3431 70.8647 63.2976 73.3763 60.7862C85.5518 48.6105 85.5518 28.7993 73.3763 16.6236C61.2004 4.44795 41.3895 4.44813 29.2138 16.6236C17.0383 28.7993 17.0383 48.6105 29.2138 60.7862C35.1424 66.7147 43.1466 69.9287 51.3319 69.9286C54.105 69.9286 56.8998 69.5596 59.6404 68.8022C60.3435 68.6079 60.7561 67.8804 60.5618 67.1771C60.3672 66.4737 59.6397 66.0614 58.9367 66.2556C49.0205 68.9955 38.3478 66.1839 31.082 58.9179C19.9364 47.7723 19.9364 29.6373 31.082 18.4919C42.2274 7.34659 60.3621 7.34624 71.5081 18.4919C82.6537 29.6375 82.6537 47.7725 71.5083 58.9179C69.208 61.2179 66.5695 63.0907 63.6656 64.4842C63.0078 64.8 62.7306 65.5889 63.0461 66.2466C63.3618 66.9046 64.1509 67.1813 64.8085 66.8661Z" fill="#98B7C6"/>
<path d="M52.8863 32.6853C53.616 32.6853 54.2073 32.0938 54.2073 31.3643C54.2073 30.6348 53.616 30.0433 52.8863 30.0433H46.7004C45.9707 30.0433 45.3794 30.6348 45.3794 31.3643V46.0453C45.3794 46.7748 45.9707 47.3663 46.7004 47.3663H52.8863C53.616 47.3663 54.2073 46.7748 54.2073 46.0453C54.2073 45.3158 53.616 44.7243 52.8863 44.7243H48.0214V40.0258H52.4302C53.1598 40.0258 53.7512 39.4343 53.7512 38.7048C53.7512 37.9753 53.1598 37.3838 52.4302 37.3838H48.0214V32.6853H52.8863Z" fill="black"/>
<path d="M52.8863 32.6853C53.616 32.6853 54.2073 32.0938 54.2073 31.3643C54.2073 30.6348 53.616 30.0433 52.8863 30.0433H46.7004C45.9707 30.0433 45.3794 30.6348 45.3794 31.3643V46.0453C45.3794 46.7748 45.9707 47.3663 46.7004 47.3663H52.8863C53.616 47.3663 54.2073 46.7748 54.2073 46.0453C54.2073 45.3158 53.616 44.7243 52.8863 44.7243H48.0214V40.0258H52.4302C53.1598 40.0258 53.7512 39.4343 53.7512 38.7048C53.7512 37.9753 53.1598 37.3838 52.4302 37.3838H48.0214V32.6853H52.8863Z" fill="#0AA4F6"/>
<path d="M37.2277 44.792C35.6077 44.792 34.0436 44.1332 33.0434 43.0296C32.5535 42.4891 31.7182 42.4479 31.1775 42.938C30.6368 43.4279 30.5958 44.2632 31.0859 44.8039C32.5784 46.4508 34.8745 47.434 37.2279 47.434C40.0463 47.434 42.502 45.5855 42.9397 43.134C43.4446 40.306 41.2209 38.412 38.9716 37.5823C37.0649 36.879 35.2964 36.1112 34.8501 35.915C34.3767 35.5682 34.1469 35.014 34.2329 34.4145C34.3414 33.6601 34.9211 33.0543 35.7838 32.7945C38.1627 32.0786 40.3105 33.8021 40.3513 33.8353C40.9096 34.3003 41.7395 34.227 42.2078 33.6701C42.6771 33.1117 42.605 32.2784 42.0466 31.8089C41.9158 31.6989 38.7976 29.1279 35.022 30.2649C33.1766 30.8207 31.8722 32.2668 31.6178 34.0392C31.381 35.6893 32.0956 37.2763 33.4827 38.1807C33.541 38.2186 33.6024 38.252 33.666 38.2805C33.7511 38.3185 35.7757 39.2197 38.0574 40.0614C39.6955 40.6655 40.5269 41.6163 40.3389 42.67C40.1548 43.6986 39.002 44.792 37.2277 44.792Z" fill="black"/>
<path d="M37.2277 44.792C35.6077 44.792 34.0436 44.1332 33.0434 43.0296C32.5535 42.4891 31.7182 42.4479 31.1775 42.938C30.6368 43.4279 30.5958 44.2632 31.0859 44.8039C32.5784 46.4508 34.8745 47.434 37.2279 47.434C40.0463 47.434 42.502 45.5855 42.9397 43.134C43.4446 40.306 41.2209 38.412 38.9716 37.5823C37.0649 36.879 35.2964 36.1112 34.8501 35.915C34.3767 35.5682 34.1469 35.014 34.2329 34.4145C34.3414 33.6601 34.9211 33.0543 35.7838 32.7945C38.1627 32.0786 40.3105 33.8021 40.3513 33.8353C40.9096 34.3003 41.7395 34.227 42.2078 33.6701C42.6771 33.1117 42.605 32.2784 42.0466 31.8089C41.9158 31.6989 38.7976 29.1279 35.022 30.2649C33.1766 30.8207 31.8722 32.2668 31.6178 34.0392C31.381 35.6893 32.0956 37.2763 33.4827 38.1807C33.541 38.2186 33.6024 38.252 33.666 38.2805C33.7511 38.3185 35.7757 39.2197 38.0574 40.0614C39.6955 40.6655 40.5269 41.6163 40.3389 42.67C40.1548 43.6986 39.002 44.792 37.2277 44.792Z" fill="#0AA4F6"/>
<path d="M72.9661 38.7047C72.9661 33.8915 69.0502 29.9756 64.2368 29.9756C59.4235 29.9756 55.5078 33.8915 55.5078 38.7047C55.5078 43.518 59.4235 47.4337 64.2368 47.4337C69.0502 47.4339 72.9661 43.518 72.9661 38.7047ZM58.15 38.7047C58.15 35.3484 60.8806 32.6176 64.237 32.6176C67.5935 32.6176 70.3243 35.3482 70.3243 38.7047C70.3243 42.0613 67.5935 44.7919 64.237 44.7919C60.8806 44.7919 58.15 42.0613 58.15 38.7047Z" fill="black"/>
<path d="M72.9661 38.7047C72.9661 33.8915 69.0502 29.9756 64.2368 29.9756C59.4235 29.9756 55.5078 33.8915 55.5078 38.7047C55.5078 43.518 59.4235 47.4337 64.2368 47.4337C69.0502 47.4339 72.9661 43.518 72.9661 38.7047ZM58.15 38.7047C58.15 35.3484 60.8806 32.6176 64.237 32.6176C67.5935 32.6176 70.3243 35.3482 70.3243 38.7047C70.3243 42.0613 67.5935 44.7919 64.237 44.7919C60.8806 44.7919 58.15 42.0613 58.15 38.7047Z" fill="#0AA4F6"/>
</svg>
