<svg width="90" height="90" viewBox="0 0 90 90" fill="none" xmlns="http://www.w3.org/2000/svg">
<path d="M8.27722 5.95081H10.9139V8.58752H8.27722V5.95081Z" fill="black"/>
<path d="M8.27722 5.95081H10.9139V8.58752H8.27722V5.95081Z" fill="#98B7C6"/>
<path d="M13.5507 5.95081H16.1874V8.58752H13.5507V5.95081Z" fill="black"/>
<path d="M13.5507 5.95081H16.1874V8.58752H13.5507V5.95081Z" fill="#98B7C6"/>
<path d="M15.6848 33.731L21.8906 27.5252L15.6848 21.3195L13.8204 23.1841L18.1617 27.5252L13.8204 31.8663L15.6848 33.731Z" fill="black"/>
<path d="M15.6848 33.731L21.8906 27.5252L15.6848 21.3195L13.8204 23.1841L18.1617 27.5252L13.8204 31.8663L15.6848 33.731Z" fill="#0AA4F6"/>
<path d="M25.8518 31.4772L25.8755 28.8403L65.0609 29.1929L65.0371 31.8298L25.8518 31.4772Z" fill="black"/>
<path d="M25.8518 31.4772L25.8755 28.8403L65.0609 29.1929L65.0371 31.8298L25.8518 31.4772Z" fill="#0AA4F6"/>
<path d="M25.8518 26.2045L25.8755 23.5676L65.0609 23.9202L65.0371 26.5571L25.8518 26.2045Z" fill="black"/>
<path d="M25.8518 26.2045L25.8755 23.5676L65.0609 23.9202L65.0371 26.5571L25.8518 26.2045Z" fill="#0AA4F6"/>
<path d="M15.6848 51.4849L21.8906 45.2791L15.6848 39.0734L13.8204 40.9381L18.1617 45.2791L13.8204 49.6202L15.6848 51.4849Z" fill="black"/>
<path d="M15.6848 51.4849L21.8906 45.2791L15.6848 39.0734L13.8204 40.9381L18.1617 45.2791L13.8204 49.6202L15.6848 51.4849Z" fill="#0AA4F6"/>
<path d="M25.8683 46.5975H36.927V49.2343H25.8683V46.5975Z" fill="black"/>
<path d="M25.8683 46.5975H36.927V49.2343H25.8683V46.5975Z" fill="#0AA4F6"/>
<path d="M25.8683 41.3241H36.927V43.9608H25.8683V41.3241Z" fill="black"/>
<path d="M25.8683 41.3241H36.927V43.9608H25.8683V41.3241Z" fill="#0AA4F6"/>
<path d="M54.1434 57.3164L48.0822 62.9991L54.1434 68.6814L55.9468 66.7576L51.9374 62.9991L55.9468 59.2402L54.1434 57.3164Z" fill="black"/>
<path d="M54.1434 57.3164L48.0822 62.9991L54.1434 68.6814L55.9468 66.7576L51.9374 62.9991L55.9468 59.2402L54.1434 57.3164Z" fill="#0AA4F6"/>
<path d="M70.4399 59.2402L74.4493 62.9991L70.4399 66.7576L72.2433 68.6814L78.3046 62.9991L72.2433 57.3164L70.4399 59.2402Z" fill="black"/>
<path d="M70.4399 59.2402L74.4493 62.9991L70.4399 66.7576L72.2433 68.6814L78.3046 62.9991L72.2433 57.3164L70.4399 59.2402Z" fill="#0AA4F6"/>
<path d="M58.1117 67.3901L66.1974 57.3732L68.2487 59.029L60.1631 69.046L58.1117 67.3901Z" fill="black"/>
<path d="M58.1117 67.3901L66.1974 57.3732L68.2487 59.029L60.1631 69.046L58.1117 67.3901Z" fill="#0AA4F6"/>
<path d="M90 67.7426V58.6441L84.6703 56.7489L82.9369 52.5637L85.3653 47.455L79.8047 41.8943V6.5918C79.8047 2.95699 76.8477 0 73.2129 0H65.8301V2.63672H73.2129C75.3936 2.63672 77.168 4.41105 77.168 6.5918V11.4309H2.63672V6.5918C2.63672 4.41105 4.41088 2.63672 6.5918 2.63672H63.1934V0H6.5918C2.95699 0 0 2.95699 0 6.5918V58.2873C0 61.9221 2.95699 64.8791 6.5918 64.8791H18.7084V62.2424H6.5918C4.41088 62.2424 2.63672 60.468 2.63672 58.2873V14.0676H77.168V41.8598L73.823 43.45L69.6378 41.7166L67.7426 36.3867H58.6441L56.7489 41.7164L52.5637 43.4498L47.455 41.0214L41.0215 47.455L43.45 52.5637L41.7166 56.7489L36.3867 58.6441V62.2424H21.3451V64.8791H36.3867V67.7426L41.7164 69.6378L43.4498 73.823L41.0214 78.9318L47.4548 85.3653L52.5635 82.9369L56.7487 84.6703L58.6441 90H67.7426L69.6378 84.6703L73.823 82.9369L78.9318 85.3653L85.3653 78.9318L82.9369 73.823L84.6703 69.6378L90 67.7426ZM82.6828 67.5464L80.0522 73.8965L82.1851 78.3831L78.3831 82.1851L73.8965 80.0522L67.5464 82.6828L65.8818 87.3633H60.505L58.8403 82.6828L52.4902 80.0522L48.0036 82.1851L44.2018 78.3831L46.3344 73.8965L43.704 67.5464L39.0234 65.8818V60.505L43.704 58.8403L46.3344 52.4902L44.2018 48.0036L48.0036 44.2016L52.4902 46.3345L58.8403 43.704L60.505 39.0234H65.8818L67.5464 43.704L73.8965 46.3345L78.3831 44.2016L82.1851 48.0036L80.0522 52.4902L82.6828 58.8403L87.3633 60.505V65.8818L82.6828 67.5464Z" fill="black"/>
<path d="M90 67.7426V58.6441L84.6703 56.7489L82.9369 52.5637L85.3653 47.455L79.8047 41.8943V6.5918C79.8047 2.95699 76.8477 0 73.2129 0H65.8301V2.63672H73.2129C75.3936 2.63672 77.168 4.41105 77.168 6.5918V11.4309H2.63672V6.5918C2.63672 4.41105 4.41088 2.63672 6.5918 2.63672H63.1934V0H6.5918C2.95699 0 0 2.95699 0 6.5918V58.2873C0 61.9221 2.95699 64.8791 6.5918 64.8791H18.7084V62.2424H6.5918C4.41088 62.2424 2.63672 60.468 2.63672 58.2873V14.0676H77.168V41.8598L73.823 43.45L69.6378 41.7166L67.7426 36.3867H58.6441L56.7489 41.7164L52.5637 43.4498L47.455 41.0214L41.0215 47.455L43.45 52.5637L41.7166 56.7489L36.3867 58.6441V62.2424H21.3451V64.8791H36.3867V67.7426L41.7164 69.6378L43.4498 73.823L41.0214 78.9318L47.4548 85.3653L52.5635 82.9369L56.7487 84.6703L58.6441 90H67.7426L69.6378 84.6703L73.823 82.9369L78.9318 85.3653L85.3653 78.9318L82.9369 73.823L84.6703 69.6378L90 67.7426ZM82.6828 67.5464L80.0522 73.8965L82.1851 78.3831L78.3831 82.1851L73.8965 80.0522L67.5464 82.6828L65.8818 87.3633H60.505L58.8403 82.6828L52.4902 80.0522L48.0036 82.1851L44.2018 78.3831L46.3344 73.8965L43.704 67.5464L39.0234 65.8818V60.505L43.704 58.8403L46.3344 52.4902L44.2018 48.0036L48.0036 44.2016L52.4902 46.3345L58.8403 43.704L60.505 39.0234H65.8818L67.5464 43.704L73.8965 46.3345L78.3831 44.2016L82.1851 48.0036L80.0522 52.4902L82.6828 58.8403L87.3633 60.505V65.8818L82.6828 67.5464Z" fill="#98B7C6"/>
</svg>
